REM MD5 41c3315ad7eab82723fafc59ee144de3
FILE "Shadow Madness (USA) (Demo).bin" BINARY
  TRACK 01 MODE2/2352
    INDEX 01 00:00:00
  TRACK 02 AUDIO
    INDEX 00 18:19:02
    INDEX 01 18:21:02
  TRACK 03 AUDIO
    INDEX 00 19:07:60
    INDEX 01 19:09:60
REM LEADOUT 19:15:56
